<svg xmlns="http://www.w3.org/2000/svg" xmlns:xlink="http://www.w3.org/1999/xlink" width="150" zoomAndPan="magnify" viewBox="0 0 112.5 112.499997" height="150" preserveAspectRatio="xMidYMid meet" version="1.0"><defs><clipPath id="90380c6b31"><path d="M 0 0 L 112.003906 0 L 112.003906 112.003906 L 0 112.003906 Z M 0 0 " clip-rule="nonzero"/></clipPath></defs><g clip-path="url(#90380c6b31)"><path fill="#ffffff" d="M 0 0 L 112.003906 0 L 112.003906 112.003906 L 0 112.003906 Z M 0 0 " fill-opacity="1" fill-rule="nonzero"/><path fill="#ffffff" d="M 0 0 L 112.003906 0 L 112.003906 112.003906 L 0 112.003906 Z M 0 0 " fill-opacity="1" fill-rule="nonzero"/></g><path fill="#ea8000" d="M 103.628906 71.359375 C 96.035156 97.5625 68.421875 112.710938 41.945312 105.105469 C 15.421875 97.492188 0.132812 70.023438 7.726562 43.796875 C 15.300781 17.578125 42.921875 2.488281 69.453125 10.074219 C 95.898438 17.699219 111.242188 45.117188 103.628906 71.359375 Z M 103.628906 71.359375 " fill-opacity="1" fill-rule="nonzero"/><path fill="#ffdf00" d="M 103.570312 69.179688 C 95.914062 95.535156 68.277344 110.78125 41.789062 103.175781 C 15.292969 95.578125 -0.0078125 67.980469 7.648438 41.617188 C 15.292969 15.277344 42.921875 0.0664062 69.453125 7.652344 C 95.898438 15.277344 111.230469 42.820312 103.570312 69.179688 Z M 103.570312 69.179688 " fill-opacity="1" fill-rule="nonzero"/><path fill="#ffea94" d="M 89.34375 19.070312 L 7.882812 41.0625 C 7.820312 41.261719 7.707031 41.433594 7.648438 41.632812 C 5.777344 48.074219 5.316406 54.574219 6.019531 60.851562 L 100.960938 35.21875 C 98.21875 29.132812 94.304688 23.648438 89.34375 19.070312 Z M 89.34375 19.070312 " fill-opacity="1" fill-rule="nonzero"/><path fill="#ffea94" d="M 103.25 40.769531 L 7.214844 66.695312 C 7.535156 68.023438 7.683594 69.402344 8.097656 70.695312 L 104.132812 44.761719 C 103.835938 43.433594 103.65625 42.0625 103.25 40.769531 Z M 103.25 40.769531 " fill-opacity="1" fill-rule="nonzero"/><path fill="#ffbe00" d="M 91.75 64.4375 C 86 84.335938 65.132812 95.871094 45.199219 90.078125 C 25.214844 84.335938 13.671875 63.558594 19.429688 43.648438 C 25.214844 23.769531 46.074219 12.351562 66.03125 18.042969 C 86 23.785156 97.515625 44.527344 91.75 64.4375 Z M 91.75 64.4375 " fill-opacity="1" fill-rule="nonzero"/><path fill="#faa400" d="M 45.199219 90.078125 C 65.132812 95.871094 86 84.335938 91.75 64.4375 C 93.742188 57.558594 94.945312 53.28125 93.179688 46.855469 L 21.136719 67.179688 C 24.601562 79.171875 32.265625 86.371094 45.199219 90.078125 Z M 45.199219 90.078125 " fill-opacity="1" fill-rule="nonzero"/><path fill="#ffffff" d="M 99.226562 46.335938 C 97.464844 29.097656 80.199219 17.890625 80.027344 17.78125 L 81.621094 15.304688 C 82.378906 15.789062 100.261719 27.40625 102.164062 46.039062 Z M 99.226562 46.335938 " fill-opacity="1" fill-rule="nonzero"/><path fill="#ffffff" d="M 47.335938 100.21875 C 19.976562 95.773438 11.710938 71.699219 11.628906 71.457031 L 14.433594 70.539062 L 13.03125 71 L 14.433594 70.535156 C 14.511719 70.761719 22.265625 93.164062 47.808594 97.320312 Z M 47.335938 100.21875 " fill-opacity="1" fill-rule="nonzero"/><path fill="#ffffff" d="M 74.789062 13.179688 C 74.570312 13.894531 71.6875 13.601562 68.328125 12.566406 C 65.011719 11.558594 62.507812 10.164062 62.707031 9.464844 C 62.933594 8.765625 65.808594 9.050781 69.140625 10.066406 C 72.441406 11.085938 74.996094 12.488281 74.789062 13.179688 Z M 74.789062 13.179688 " fill-opacity="1" fill-rule="nonzero"/><path fill="#f69000" d="M 55.671875 92.464844 C 52.058594 92.464844 48.449219 91.949219 44.949219 90.933594 C 24.523438 85.0625 12.691406 63.742188 18.574219 43.402344 C 23.320312 27.085938 38.554688 15.691406 55.617188 15.691406 C 59.207031 15.691406 62.796875 16.195312 66.28125 17.1875 C 86.683594 23.054688 98.496094 44.363281 92.609375 64.683594 C 87.882812 81.039062 72.691406 92.464844 55.671875 92.464844 Z M 55.617188 17.46875 C 39.34375 17.46875 24.816406 28.335938 20.289062 43.898438 C 14.679688 63.292969 25.964844 83.625 45.449219 89.222656 C 48.789062 90.195312 52.226562 90.6875 55.671875 90.6875 C 71.902344 90.6875 86.382812 79.792969 90.890625 64.191406 C 96.503906 44.8125 85.242188 24.492188 65.785156 18.898438 C 62.464844 17.949219 59.042969 17.46875 55.617188 17.46875 Z M 55.617188 17.46875 " fill-opacity="1" fill-rule="nonzero"/><path fill="#faa400" d="M 55.78125 27.484375 C 56.273438 26.484375 57.105469 26.484375 57.597656 27.484375 L 65.003906 42.441406 C 65.496094 43.441406 66.8125 44.398438 67.921875 44.5625 L 84.503906 46.96875 C 85.609375 47.132812 85.863281 47.882812 85.058594 48.675781 L 73.0625 60.300781 C 72.257812 61.09375 71.765625 62.625 71.9375 63.722656 L 74.789062 80.15625 C 74.96875 81.265625 74.3125 81.734375 73.332031 81.214844 L 58.492188 73.457031 C 57.503906 72.9375 55.886719 72.9375 54.890625 73.457031 L 40.050781 81.214844 C 39.070312 81.734375 38.414062 81.265625 38.613281 80.15625 L 41.441406 63.722656 C 41.625 62.625 41.121094 61.09375 40.324219 60.300781 L 28.324219 48.675781 C 27.527344 47.882812 27.769531 47.132812 28.878906 46.96875 L 45.460938 44.5625 C 46.585938 44.402344 47.882812 43.441406 48.386719 42.445312 Z M 55.78125 27.484375 " fill-opacity="1" fill-rule="nonzero"/><path fill="#ffffa4" d="M 54.839844 28.613281 C 55.277344 27.726562 55.980469 27.726562 56.421875 28.613281 L 62.917969 41.734375 C 63.359375 42.617188 64.511719 43.441406 65.488281 43.597656 L 80.035156 45.703125 C 81.023438 45.847656 81.238281 46.511719 80.535156 47.210938 L 70 57.417969 C 69.289062 58.109375 68.855469 59.460938 69.019531 60.421875 L 71.515625 74.84375 C 71.679688 75.808594 71.089844 76.230469 70.230469 75.785156 L 57.203125 68.957031 C 56.34375 68.507812 54.914062 68.507812 54.050781 68.957031 L 41.019531 75.785156 C 40.160156 76.230469 39.582031 75.8125 39.746094 74.84375 L 42.230469 60.421875 C 42.394531 59.460938 41.960938 58.109375 41.25 57.417969 L 30.722656 47.210938 C 30.011719 46.511719 30.238281 45.847656 31.214844 45.703125 L 45.769531 43.597656 C 46.75 43.441406 47.894531 42.617188 48.335938 41.734375 Z M 54.839844 28.613281 " fill-opacity="1" fill-rule="nonzero"/></svg>