<svg xmlns="http://www.w3.org/2000/svg" xmlns:xlink="http://www.w3.org/1999/xlink" width="150" zoomAndPan="magnify" viewBox="0 0 112.5 112.499997" height="150" preserveAspectRatio="xMidYMid meet" version="1.0"><defs><clipPath id="a507139634"><path d="M 0 0 L 112.003906 0 L 112.003906 112.003906 L 0 112.003906 Z M 0 0 " clip-rule="nonzero"/></clipPath><clipPath id="b5abbef0e9"><path d="M 4 19 L 108 19 L 108 108.46875 L 4 108.46875 Z M 4 19 " clip-rule="nonzero"/></clipPath><clipPath id="a885a59d0b"><path d="M 2.515625 3.183594 L 110 3.183594 L 110 97 L 2.515625 97 Z M 2.515625 3.183594 " clip-rule="nonzero"/></clipPath></defs><g clip-path="url(#a507139634)"><path fill="#ffffff" d="M 0 0 L 112.003906 0 L 112.003906 112.003906 L 0 112.003906 Z M 0 0 " fill-opacity="1" fill-rule="nonzero"/><path fill="#ffffff" d="M 0 0 L 112.003906 0 L 112.003906 112.003906 L 0 112.003906 Z M 0 0 " fill-opacity="1" fill-rule="nonzero"/></g><g clip-path="url(#b5abbef0e9)"><path fill="#c24a92" d="M 4.796875 108.402344 L 56.878906 19.859375 L 107.65625 108.402344 L 56.226562 88.15625 L 4.796875 108.402344 " fill-opacity="1" fill-rule="nonzero"/></g><g clip-path="url(#a885a59d0b)"><path fill="#393839" d="M 6.75 95.125 C 10.355469 89 13.957031 82.875 17.558594 76.75 C 24.867188 64.324219 32.175781 51.902344 39.480469 39.480469 C 45.238281 29.691406 50.996094 19.902344 56.75 10.117188 C 57.441406 8.9375 58.136719 7.757812 58.828125 6.582031 L 54.925781 6.582031 C 58.472656 12.773438 62.023438 18.960938 65.574219 25.152344 C 72.746094 37.660156 79.917969 50.167969 87.09375 62.675781 C 92.675781 72.410156 98.257812 82.144531 103.839844 91.878906 C 104.460938 92.960938 105.082031 94.042969 105.699219 95.125 C 106.554688 94.019531 107.402344 92.910156 108.257812 91.804688 C 98.53125 87.976562 88.804688 84.148438 79.082031 80.316406 C 73.167969 77.992188 67.257812 75.664062 61.34375 73.335938 C 59.945312 72.785156 58.546875 72.234375 57.148438 71.683594 C 56.195312 71.308594 55.457031 71.621094 54.585938 71.964844 C 43.109375 76.488281 31.628906 81.003906 20.152344 85.523438 C 14.832031 87.617188 9.515625 89.710938 4.195312 91.804688 C 3.050781 92.253906 2.265625 93.300781 2.617188 94.585938 C 2.917969 95.679688 4.25 96.617188 5.398438 96.164062 C 15.125 92.335938 24.847656 88.507812 34.570312 84.679688 C 41.992188 81.761719 49.40625 78.839844 56.824219 75.917969 L 55.625 75.917969 C 65.347656 79.75 75.070312 83.578125 84.796875 87.40625 C 92.214844 90.324219 99.632812 93.246094 107.050781 96.164062 C 108.992188 96.929688 110.511719 94.425781 109.605469 92.84375 C 106.058594 86.65625 102.507812 80.464844 98.957031 74.277344 C 91.785156 61.769531 84.613281 49.257812 77.441406 36.75 C 71.855469 27.015625 66.273438 17.28125 60.691406 7.546875 C 60.070312 6.464844 59.449219 5.382812 58.828125 4.300781 C 57.980469 2.820312 55.777344 2.84375 54.921875 4.300781 C 51.320312 10.425781 47.71875 16.550781 44.113281 22.679688 C 36.808594 35.101562 29.5 47.523438 22.191406 59.949219 C 16.4375 69.734375 10.679688 79.523438 4.921875 89.3125 C 4.230469 90.488281 3.535156 91.667969 2.84375 92.84375 C 1.363281 95.363281 5.273438 97.636719 6.75 95.125 " fill-opacity="1" fill-rule="nonzero"/></g></svg>